<?xml version="1.0" encoding="UTF-8"?>
<svg id="Layer_1" xmlns="http://www.w3.org/2000/svg" version="1.1" viewBox="0 0 713.38 563.61">
  <!-- Generator: Adobe Illustrator 29.8.2, SVG Export Plug-In . SVG Version: 2.1.1 Build 3)  -->
  <defs>
    <style>
      .st0 {
        fill: #3497d9;
      }

      .st1 {
        fill: #131224;
      }

      .st2 {
        display: none;
        fill: #3d6ebd;
      }

      .st3 {
        fill: #f8f9f8;
      }

      .st4 {
        fill: #f9cf4d;
      }
    </style>
  </defs>
  <path class="st1" d="M548.29,251.75q0-.9,0-1.81c.32-7.28,2.24-13.38,4.91-20.09,2.82-7.3,2.41-12.9.15-20.42-.36-1.21-.72-2.43-1.09-3.68q-.85-2.89-1.97-5.01-4.12,1.29-8,3.12c-2.82,1.23-4.94,1.12-8,.88q-2.39-1.36-4.69-3.19c-5.14-3.84-10.44-6.3-16.31-8.81q-9.78-4.42-12-8,.07-1.88.39-4.09c.42-3.15.68-6.2.72-9.38q.38-11.5,4.09-16.5c2.53-2.13,5.08-4,7.87-5.77,2.18-1.43,4.22-2.98,6.29-4.56,1.5-1.13,3.01-2.26,4.51-3.39.71-.54,1.43-1.09,2.16-1.64.69-.49,1.37-.99,2.08-1.49.6-.44,1.21-.89,1.83-1.35,3.04-1.23,4.9-.67,8.05.17,2.42,1.09,4.7,2.21,7.02,3.46.66.35,1.32.7,2,1.06,5.75,3.05,11.45,6.19,17.15,9.34,3.69,2.03,7.39,3.91,11.24,5.62,5.33,2.5,9.27,4.67,11.81,10.19,1.87,5.27,3.19,10.58,4.32,16.05,2.42,11.39,7.93,21.44,13.33,31.66.63,1.2,1.25,2.4,1.88,3.6,2.49,4.78,5,9.56,7.54,14.32,7.34,14.05,10.97,27.54,10.59,43.37-.26,11.2.63,21.36,3.24,32.25.81,3.42,1.06,6.55.88,10.08-11.45,5.6-22.88,9.49-35.38,11.81-9.03,1.71-16.59,5.13-24.75,9.25-22.19,11.06-47.92,14.31-71.88,7.94-4.13-1.43-8.05-3.14-12-5-1.9-.87-3.8-1.73-5.7-2.59-.99-.45-1.99-.9-3.01-1.37-.76-.34-1.52-.69-2.3-1.04q.02,1.53.04,3.1c.12,9.65.21,19.3.27,28.95.03,4.96.07,9.92.14,14.88.07,4.79.1,9.58.12,14.37.01,1.82.03,3.65.07,5.47q.3,17.29-5.24,23.04c-.46.39-.92.78-1.39,1.18-1.57,1.57-1.15,3.13-1.17,5.3q-.02,1.37-.04,2.77c-.01.99-.02,1.99-.03,3.01-.03,2.08-.07,4.17-.1,6.25-.05,3.3-.09,6.61-.13,9.91-.04,3.18-.09,6.35-.14,9.53,0,.99-.02,1.99-.03,3.01-.02.92-.03,1.84-.05,2.78-.01.81-.02,1.62-.03,2.45q-.27,1.98-2.27,3.98-2.56.19-5,0-1-1-1.11-4.88c0-1.73,0-3.46.02-5.19q0-1.36,0-2.75c0-2.91.02-5.83.03-8.74,0-1.97,0-3.94.01-5.91.01-4.84.03-9.68.05-14.53q-4.95,1.98-10,4c-.03,1.36-.05,2.72-.08,4.11-.09,5.02-.19,10.04-.3,15.06-.04,2.18-.09,4.35-.12,6.53-.06,3.12-.12,6.24-.19,9.36q-.03,1.47-.05,2.97c-.02.9-.04,1.8-.06,2.73q-.02,1.2-.05,2.42-.16,1.83-1.16,2.83-3,.12-6,0-1-1-1.11-4.97c0-1.77,0-3.54.02-5.32q0-1.4,0-2.82c0-2.99.02-5.97.03-8.96,0-2.02,0-4.04.01-6.06.01-4.96.03-9.92.05-14.88-3.96.66-7.92,1.32-12,2,.01,1.47.02,2.95.03,4.47.04,5.45.06,10.91.08,16.36.01,2.36.02,4.73.04,7.09.02,3.39.04,6.78.04,10.17.01,1.06.02,2.12.03,3.22,0,.98,0,1.96,0,2.97,0,.87,0,1.73.01,2.62q-.24,2.1-2.24,4.1-4.56-.56-6-2c-.09-1.5-.12-3.01-.11-4.52,0-.96,0-1.92,0-2.91,0-1.04.01-2.09.02-3.17q0-1.6,0-3.22c0-3.41.02-6.83.03-10.24,0-2.31,0-4.62.01-6.92.01-5.67.03-11.34.05-17.01-.61.02-1.22.04-1.85.07-.8.02-1.61.03-2.44.05-.79.02-1.59.04-2.41.07-3.55-.28-5.65-1.92-8.31-4.18-4.18-8.37-1.64-18.65-2-28-41.91,41.91-75.82,72.82-119,116l39-117h-22c.07,1.82.14,5.64.21,7.51.06,2.39.11,4.78.16,7.18.05,1.2.1,2.4.15,3.63q.14,8.44-1.57,11.63c-2.16,2.11-4.28,3-7.27,3.22-.79-.02-1.59-.04-2.41-.06-.8-.02-1.61-.03-2.43-.05-.61-.02-1.22-.04-1.84-.06,0,.6,0,1.19.01,1.81.04,6.2.07,12.39.1,18.59.01,2.31.02,4.63.04,6.94.02,3.32.04,6.64.04,9.96.01,1.04.02,2.08.03,3.15,0,.96,0,1.92,0,2.91,0,.85,0,1.7.01,2.57q-.24,2.06-2.24,4.06-4.56-.56-6-2c-.09-1.53-.12-3.07-.11-4.61,0-.98,0-1.96,0-2.97,0-1.07.01-2.13.02-3.23q0-1.63,0-3.29c0-3.48.02-6.97.03-10.45,0-2.36,0-4.71.01-7.07.01-5.79.03-11.58.05-17.37-.61-.06-1.23-.12-1.86-.18-.81-.08-1.62-.17-2.45-.25-.8-.08-1.6-.16-2.43-.25q-2.26-.32-5.26-1.32c.01,1.26.02,2.52.03,3.82.04,4.67.06,9.34.08,14.01.01,2.02.02,4.05.04,6.07.02,2.9.04,5.81.04,8.71.01.91.02,1.82.03,2.75,0,.84,0,1.68,0,2.55,0,.74,0,1.48.01,2.25q-.24,1.83-2.24,3.83-4.56-.56-6-2c-.09-1.41-.12-2.83-.11-4.24,0-.9,0-1.8,0-2.73,0-.98.01-1.96.02-2.97q0-1.5,0-3.02c0-3.2.02-6.4.03-9.6,0-2.16,0-4.33.01-6.49.01-5.32.03-10.63.05-15.95-.63-.2-1.25-.41-1.9-.62q-1.23-.4-2.48-.82c-.81-.27-1.62-.53-2.46-.81q-2.16-.75-4.16-1.75v41c-1.98.33-3.96.66-6,1q-2-2-2.24-3.94c0-.79,0-1.58.01-2.4,0-.9,0-1.8,0-2.72,0-.97.01-1.95.02-2.95-.01-2.06-.02-4.12-.04-6.17-.01-3.25-.01-6.5,0-9.74.01-3.13,0-6.26-.04-9.4.02-.96.03-1.93.05-2.92-.07-4.96-.44-7.93-3.76-11.73q-.81-.78-1.63-1.57c-3.19-3.34-2.52-7.74-2.5-12.04,0-.77,0-1.54,0-2.34,0-2.55,0-5.1.02-7.65,0-1.77,0-3.53,0-5.3,0-4.65.01-9.3.02-13.95.01-4.75.01-9.49.02-14.24.01-9.31.03-18.62.05-27.94q-1.73.72-3.5,1.46c-1.54.64-3.07,1.28-4.61,1.92-.76.32-1.52.64-2.3.96-23.29,9.65-49.55,7.2-72.59-2.34-2.6-1.2-5.19-2.43-7.77-3.67-9.37-4.47-18.18-7.59-28.36-9.64-9.74-1.97-20.77-4.71-28.87-10.7-.78-5.74.31-10.64,1.51-16.27,1.84-9.29,1.92-18.43,1.85-27.88-.06-15.44,3.81-28.12,10.7-41.98.47-.96.93-1.91,1.41-2.9,4.78-9.71,9.97-19.2,15.26-28.64q.63-1.16,1.27-2.34c.52-.95,1.04-1.9,1.57-2.89,1.48-3.23,2.17-6.06,2.79-9.54.25-1.21.49-2.42.75-3.66.5-2.51.97-5.02,1.4-7.55,1.13-5.25,2.05-9.07,6.12-12.74,2.78-1.73,5.57-3.28,8.51-4.71,2.5-1.24,4.91-2.62,7.33-4,2.47-1.4,4.96-2.77,7.45-4.13,1.9-1.04,3.8-2.09,5.69-3.13,2.4-1.33,4.81-2.64,7.23-3.94,1.88-1.02,3.75-2.05,5.6-3.11,2.94-1.63,5.18-2.58,8.56-2.69,4.17,1.53,7.27,3.92,10.73,6.66.7.54,1.4,1.08,2.12,1.63,2.05,1.59,4.09,3.19,6.13,4.8.56.44,1.12.88,1.7,1.33,7.42,5.84,9.43,7.52,10.87,16.73.14.83.28,1.67.42,2.53.39,2.47.72,4.93,1.02,7.41.09.74.17,1.47.27,2.23.24,3.7-.08,5.51-2.24,8.56-3.64,2.67-7.18,4.13-11.4,5.65-6.25,2.4-10.89,4.71-15.62,9.56-3.49,1.74-7.18,1.45-11,1-3.14-1.08-6.06-2.45-9-4-.19.81-.39,1.62-.59,2.45-.26,1.07-.52,2.14-.79,3.24-.26,1.06-.51,2.11-.77,3.2q-.85,3.11-1.95,5.57c-2.19,6.2-.62,10.94,1.98,16.73,2.81,6.51,4.36,12.73,5.12,19.81.7-.47,1.4-.94,2.12-1.43,11.04-7.25,21.59-11.23,34.98-9.27,4.58,1.03,8.64,2.86,12.82,4.98,2.55.87,3.58.69,6.08-.29,1.5-.9,2.98-1.84,4.44-2.81,4.98-3.09,9.92-4.67,15.54-6.25,2.6-.8,4.73-1.69,7.09-3,4.97-2.7,10.45-3.73,15.94-4.94-.06-.83-.12-1.67-.18-2.53-.39-9.78,1.66-14.94,7.55-22.54,2.15-3.88,1.77-6.81.62-10.94-.96-2.35-1.95-4.69-3-7-2.09-8.62-2.1-16.95,2.3-24.8,3.35-4.33,7.88-6.79,12.7-9.2q.01-.89.03-1.8c.5-25.3,6.6-43.73,25.12-61.71,24.99-21.8,60.72-23.41,87.85-4.39,15.11,11.86,27.21,28.08,29.69,47.52.57,7.1.39,14.26.31,21.38.93.29,1.85.58,2.81.88,5.95,2.1,9.04,5.38,12.07,10.75,3.81,8.28,2.67,15.94-.12,24.38q-.75,2-1.75,4c-1.01,7.79,1.27,11.97,5.47,18.5,1.53,2.5.43.5,1.53,4.5s-.9,8.98-.9,8.98l3.79,4.55,20.11,7.47c.73.17,1.46.34,2.22.51,6.44,1.52,11.77,3.85,17.47,7.18q2.35,1.42,5.31,2.3c1.67-.75,3.32-1.58,4.94-2.44,5.83-2.55,10.91-3.06,17.25-3.06.83,0,1.66-.01,2.52-.02,8.08.16,14.96,2.36,21.86,6.58.85.51,1.69,1.01,2.57,1.54.62.46,1.23.93,1.87,1.4"/>
  <path class="st0" d="M474.25,294.83c-.48-16.58-3.67-32.86-6.96-49.08,6.77,1.71,8.8,1,11,5s1.62,7.9,1.62,7.9c13.19-8.9,27.94-9.46,44.38-7.9,11.28,2.21,18.63,9.86,25.71,18.44,3.64,4.38,7.52,7.56,12.29,10.56-.29-.48-.58-.96-.88-1.45-5.64-11.23-4.63-27.04-1.12-38.85,1.49-4.02,3.18-7.94,5.01-11.82,2.4-7.02.3-12.88-2.01-19.57-.57-1.67-1.13-3.34-1.69-5.01-.25-.73-.5-1.46-.76-2.21q-.55-2.09-.55-6.09l3-2c.33-.99.66-1.98,1-3-.87.05-1.74.09-2.63.14q-11.45.36-16.37-4.14c-1.65,2.64-3.3,5.28-5,8-3.88-.22-6.32-.48-9.44-2.88-2.32-4.64-1.88-9.03-1.56-14.12h-2c-.27.76-.54,1.53-.81,2.31q-1.81,4.11-4.19,5.69c-3.91-.21-7.04-1.46-10-4-.36-3.43-.56-5.88,1-9,.03-1.4.05-2.79.06-4.19.43-3.92,1.29-5.7,4.25-8.31,1.55-1.19,3.11-2.35,4.69-3.5,1-.81,2-1.63,3.02-2.47q8.23-6.6,11.34-6.3c2.82.82,5.04,1.92,7.59,3.39q1.41.8,2.85,1.63c2.03,1.18,4.06,2.37,6.09,3.55,4.61,2.68,9.16,5.3,14.03,7.5q10.12,4.67,12.72,10.21c.95,3.39,1.46,6.84,1.96,10.32.67,3.73,1.92,7.24,3.2,10.79.26.72.52,1.43.78,2.17,3.3,8.9,7.71,17.16,12.31,25.44,11.35,20.45,17.31,36.68,17.63,60.13.03,2.24.08,4.49.12,6.73q0,1.01.02,2.04c.1,4.93,1.09,9.13,2.33,13.86.15,2.37.1,4.63,0,7-8.13,3.73-16,5.69-24.75,7.31-10.06,1.91-18.39,5.05-27.42,9.76-4.77,2.41-9.78,4.19-14.83,5.92-1.1.39-2.2.79-3.33,1.19-14.69,4.64-32.09,4.96-46.67-.19-1.11-.34-2.22-.68-3.37-1.03-3.62-1.17-7.11-2.53-10.63-3.97-.62-.22-1.24-.44-1.89-.67-4.65-1.7-7.98-3.46-11.11-7.33l-.04-27.92Z"/>
  <path class="st0" d="M234.78,264.7c-2.11,21.46-1.96,41.98-2.49,63.05-13.57,6.47-14.57,6.47-21.5,8.31q-1.69.46-3.41.93-1.53.38-3.09.76c-.75.19-1.5.38-2.27.58-22.74,3.49-42.02-3.43-62.42-12.56-8.73-3.89-17.13-6.56-26.56-8.27q-15.01-3.02-17.74-5.75-.17-2-.19-4.56c-.01-.83-.03-1.65-.04-2.5q.23-2.93,1.25-6.37c1.65-6.22.96-12.63.79-19-.16-11.69.44-21.79,5.19-32.56.37-.84.74-1.69,1.12-2.56,4.01-8.97,8.4-17.73,13.05-26.39,6.68-12.46,12.83-24.74,15.54-38.73,1.24-5.78,2.54-9.38,7.65-12.7,2.64-1.52,5.34-2.91,8.06-4.27,3.05-1.59,6.01-3.31,8.98-5.04,2.26-1.31,4.52-2.62,6.78-3.93,1.1-.64,2.2-1.28,3.33-1.94,1.04-.59,2.08-1.18,3.15-1.78.93-.53,1.86-1.07,2.82-1.62q2.51-1.03,4.61-.86c2.13.93,3.8,2.01,5.65,3.41.69.52,1.38,1.04,2.09,1.58.71.55,1.42,1.09,2.16,1.65.71.53,1.42,1.07,2.16,1.62,1.97,1.5,3.91,3.03,5.84,4.57.8.61,1.6,1.21,2.42,1.84,2.45,3.36,2.5,6.84,2.83,10.91q.12,1.19.23,2.4c.19,1.95.35,3.9.52,5.85-1.41.73-2.83,1.43-4.25,2.12-.79.39-1.58.79-2.39,1.2q-2.36.68-4.47.05c-2.14-1.54-3.43-3.18-4.89-5.37q-.13,1-.26,2.01c-.71,4.44-1.32,7.41-3.99,11.11-3.22,2.19-4.93,2.32-8.75,1.88-1.32-2.64-2.64-5.28-4-8-.61.36-1.21.72-1.84,1.09-6.29,3.48-11.01,4.59-18.16,3.91.68.68,1.36,1.36,2.06,2.06q1.94,2.94,1.94,5.94c-.73,3.52-1.94,6.9-3.06,10.31-3.49,11.32-1.64,18.26,2.59,28.95,4.59,11.58,5.85,25.14.97,36.8-.8,1.66-1.62,3.31-2.5,4.94,6.74-3.78,11.07-8.26,15.81-14.31,5.76-7.07,13.04-12.94,22.19-14.69,17.89-1.51,26.9.62,40.88,10.75-.47-1.12,1.66,4.13,1.18,2.98-.39-.98-.78-1.97-1.18-2.98-.39-.97-.79-1.95-1.2-2.95q-.68-2.8.02-5.05c1.96-2.64,4.3-3.53,7.3-4.75h3c-.29,1.9-1.58,3.79-1.88,5.69l-1.63,10.26Z"/>
  <path class="st2" d="M441.03,226.54q1.87.64,4,2,1.16,2.58,2.06,5.81.49,1.76,1,3.55c6.27,24.22,7.11,47.48,7.18,72.36,0,1.31,0,2.63.01,3.98.02,6.22.03,12.44.04,18.67,0,7.15.04,14.3.08,21.45.03,5.56.04,11.12.05,16.67,0,3.31.01,6.62.04,9.92.02,3.68.02,7.36.02,11.03.01,1.09.03,2.17.04,3.29-.04,6.08-.44,9.64-4.51,14.26-7.1,5.96-16.29,8.38-25,11-.96.32-1.92.64-2.91.98-7.31,2.31-14.46,2.58-22.09,2.02-1.92-1.92-1.21-5.46-1.24-8.07-.01-.74-.03-1.48-.04-2.24-.13-7.76-.18-15.52-.24-23.28-.03-3.68-.08-7.36-.14-11.04-.08-4.44-.12-8.88-.14-13.33-.01-1.69-.04-3.38-.08-5.07q-.3-13.25,2.61-17.5c2.01-1.76,3.98-3.1,6.27-4.47,1.91-1.8,3.61-3.73,5.38-5.69.83-.91,1.67-1.82,2.52-2.76,3.1-3.76,4.07-5.56,4.23-10.49q.21-2.14.88-4.06,1.68-1.17,3.78-2.18c5.1-2.96,6.61-6.71,8.66-12.07.66-1.63,1.33-3.26,2-4.89.28-.72.56-1.43.85-2.17q.72-1.69,1.72-2.69c-.05-3.01-.2-6.01-.36-9.02.44-3.7,1.62-4.57,4.36-6.98,2.51-6.86,3.05-13.89,3.31-21.12.04-.97.07-1.94.11-2.95q-.22-3.1-2.43-5.77c-2.57-4.06-2.47-6.85-2.25-11.53.02-.74.04-1.47.05-2.23.05-1.8.12-3.6.2-5.39Z"/>
  <path class="st2" d="M248.03,224.54c-.26,2.9-.53,5.79-.81,8.69-.07.82-.14,1.63-.21,2.47-.49,4.8-1.36,7.71-3.97,11.84-1.19,8.51-.85,21.64,4.31,28.83q.68.67,1.38,1.36c2.68,3.27,2.47,3.59,2.12,7.56-.3,5.9,1.47,10.32,3.81,15.62.33.77.66,1.55,1,2.34,2.63,5.69,5.64,9.42,11.37,12.28q.56,1.89,1,4.25c.65,3.46,1.62,6.51,3,9.75-9.98.63-19.65-1.13-29.47-2.64-3.23-.46-6.47-.79-9.73-1.1q-1.8-.26-3.8-1.26v17c1.26-.06,2.52-.12,3.81-.19,6.12-.02,11.99,1.03,18.01,2.05,5.74.96,11.42,1.53,17.23,1.89q12.77,1.06,14.95,3.25c.09,2.96.12,5.89.1,8.85,0,.89,0,1.77,0,2.69,0,2.84-.02,5.69-.03,8.53,0,1.92,0,3.85-.01,5.77-.01,4.72-.03,9.45-.05,14.17-12.51-.49-24.74-1.74-37.12-3.56-1.65-.24-3.3-.47-4.96-.71-3.97-.57-7.95-1.15-11.92-1.73v16c1.12.13,2.25.25,3.41.38.82.09,1.65.18,2.5.28,2.33.26,4.65.51,6.98.77,3.75.41,7.51.83,11.26,1.25,1.57.18,3.15.35,4.72.52,8.14.89,16.18,1.77,24.14,3.8v17c-8.76,4.38-21.84-.37-30.59-3.16-3.88-1.36-7.59-2.98-11.28-4.78q-.97-.47-1.96-.94c-4.3-2.24-7.89-4.79-10.16-9.12-.72-3.91-.65-7.76-.6-11.73,0-1.18,0-2.35-.01-3.57,0-3.22.01-6.44.04-9.66.02-3.39.02-6.79.02-10.18,0-5.71.03-11.43.06-17.14.04-6.55.06-13.1.06-19.65,0-7.03.02-14.06.05-21.09,0-1.99,0-3.99.01-5.98.05-19.38.64-38.59,4.24-57.69q.22-1.31.45-2.64,2.86-15.64,8.61-19.8c2.9-.83,5.08-.95,8.06-.88Z"/>
  <path class="st2" d="M454.03,353.54v29q-5.29.65-10.69,1.31c-9.11,1.12-18.2,2.34-27.27,3.77-.8.12-1.59.24-2.41.36q-1.02.16-2.06.32c-3.84.34-7.71.23-11.57.23v-28c11.59-2.07,23.2-3.73,34.88-5.19.72-.09,1.43-.18,2.17-.27,2.07-.26,4.13-.52,6.2-.77,1.21-.15,2.41-.3,3.65-.45q3.11-.32,7.11-.32Z"/>
  <path class="st2" d="M228.03,382.54c11.29.83,22.51,2.2,33.75,3.56,1.97.24,3.94.47,5.91.71,4.78.57,9.56,1.15,14.34,1.73v34h-1v-17c-1.79-.18-3.58-.36-5.42-.55-15.93-1.65-31.86-3.31-47.58-6.45v-16Z"/>
  <path class="st2" d="M228.03,324.54c1.84.19,3.67.39,5.56.59q1.77.19,3.58.38c2.58.28,5.16.56,7.74.85q8.08.91,16.19,1.48c6.97.41,11.6,1.48,16.93,6.27,3.04,3.5,4.58,5.89,4.62,10.56-.21,1.28-.41,2.56-.62,3.88-.62-.12-1.25-.24-1.89-.37-6.67-1.21-13.3-1.97-20.05-2.57-10.75-.95-21.39-2.44-32.06-4.06v-17Z"/>
  <path class="st0" d="M290.41,114.63c1.83-1.35,35.88-4.55,52.64-4.97,26.91-.66,53.78.79,80.24,6.09.33,1.32,1.15,3.2,1.49,4.56-9.47-1.34-18.39-2.72-27.67-3.45-13.59-2.06-27.09-2.38-40.81-2.42-.98,0-1.96,0-2.97-.01-19.24-.03-37.99,1.69-57.03,4.32-2.67.34-5.08.84-7.75,1.17,0,0,1.05-3.35,1.86-5.29Z"/>
  <path class="st1" d="M166.29,295.75q1.06.43,2.14.87c15.42,6.1,31.19,7.87,46.93,1.27,1.33-.67,2.64-1.4,3.93-2.13h2c-3.57,8.02-9.25,11.4-17,15-8.09,2.67-17.39,1.55-25-2-5.51-2.82-9.41-5.95-13-11v-2Z"/>
  <path class="st1" d="M545.29,295.75c0,3.61-1.16,4.88-3.49,7.52-6.15,6.02-14.71,8.93-23.13,9.29-9.62-.47-17.18-4.59-24.38-10.81q-1.81-2.75-3-5,8.25,1.76,11.48,2.8c14.96,4.78,28.41,2.15,42.52-3.8Z"/>
  <path id="Lightning" class="st4" d="M302.29,359.75h5l.81,2.56c1.72,3.61,4.33,4.84,7.75,6.75q5.15,3.08,6.43,5.78c.26,1.49.47,3,.64,4.5.96,6.18,4.93,13.08,9.38,17.4,11.04,7.49,19.85,9.18,33,8,8.12-1.7,14.6-6.4,19.5-13.03,2.63-4.32,3.76-8.12,4.62-13.09.84-3.89,1.44-5.48,4.43-8.16,2.76-1.75,5.5-3.29,8.44-4.71.66-.33,1.32-.66,2-1,1.81,12.97,3.81,27.49-3.96,38.82-4.92,6.24-10.8,11.66-16.64,17.02-2.92,2.71-5.74,5.52-8.58,8.32-5.36,5.26-10.79,10.43-16.26,15.57-6.23,5.87-12.37,11.83-18.5,17.81-12.59,12.26-32.1,34.89-44.88,46.95,2.29-5.49,7.01-17.59,7.01-17.59,0,0,.59-1.66.89-2.51.33-.9.66-1.81,1-2.74q.51-1.43,1.03-2.88c1.12-3.13,2.25-6.26,3.38-9.39.77-2.16,1.55-4.32,2.32-6.48,5.79-16.16,11.67-32.29,17.62-48.4.3-.82.6-1.64.91-2.48.56-1.51,1.12-3.03,1.68-4.54,1.16-3.15,2.15-6.21,2.97-9.48h-32v-43Z"/>
  <path id="Forehead" class="st4" d="M319.29,126.75c2.52,1.39,4.92,2.92,7.34,4.47,4.01,2.31,8.19,3.44,12.66,4.53q.91.26,1.83.52c16.13,3.58,33.3.42,47.02-8.3,3.42-1.93,5.3-2.02,9.15-1.22,4.16,1.74,8.12,3.7,12,6,.88.5,1.76,1.01,2.66,1.53,3.02,3.18,2.87,4.98,2.78,9.22-.04.83-.08,1.65-.13,2.5-.02.84-.05,1.68-.07,2.55-.06,2.07-.15,4.14-.24,6.2q-1.85.01-3.74.03c-4.61.04-9.21.11-13.82.18-1.99.03-3.98.05-5.97.06-2.87.02-5.73.07-8.6.12-.88,0-1.77,0-2.67,0-5.97.14-9.16,1.46-14.2,4.61q-2.44.41-4.63.28-1.21-.07-2.45-.13c-.82-.07-1.64-.14-2.49-.21-.82-.04-1.65-.08-2.5-.12-3.75-.25-6.29-.45-9.62-2.32-4.38-1.97-8.12-1.97-12.87-2-.9-.02-1.8-.04-2.73-.05-2.86-.05-5.73-.09-8.59-.12-1.95-.03-3.9-.07-5.84-.1-4.76-.08-9.52-.15-14.28-.21-.19-3.04-.33-6.08-.44-9.12-.06-.86-.12-1.71-.18-2.59q-.17-6.27,2.08-9.17c5.18-4.53,11.46-8.36,18.54-7.11Z"/>
  <path id="Face" class="st4" d="M298.29,165.75h4c0,.99,0,1.98,0,3q.21,10.05,5.29,18.48c6.45,5.76,12.27,6.44,20.74,6.03,5.75-.74,9.76-2.5,13.96-6.51,3-3.93,4.07-8.02,5-12.81.56-2.76.86-4.01,2.62-6.25,3.43-1.35,6.75-1.66,10.38-.94,3.05,1.62,3.87,2.66,5.09,5.93.28,1.12.56,2.24.85,3.39,2.02,7.04,4.12,11.08,10.44,15.06,6.96,3.11,15.56,3.05,22.68.55,4.74-2.57,8.25-5.46,10.34-10.5,1.26-5.06,1.45-10.24,1.61-15.43h3c.12,3.65.19,7.29.25,10.94.03,1.02.07,2.04.1,3.1.11,8.52-1.74,14.3-6.66,21.22q-5.92,6.05-9.69,7.75c-3.48-.34-6.03-2.1-8.94-3.94-7.37-4.63-13.33-6.19-22.06-5.06-2.77,1.13-5.21,2.42-7.75,4-2.87,1.27-4.3.92-7.25,0-1.68-.98-3.34-1.98-5-3-8.25-2.5-15.47-.91-23,3-1.31.91-2.61,1.84-3.88,2.81q-3.12,2.19-5.04,2.02c-7.44-2.98-12.97-9.1-16.18-16.28-1.32-5.15-1.12-10.14-1.04-15.43,0-1.07.02-2.14.03-3.24.02-2.63.06-5.26.1-7.88Z"/>
  <path id="Neck" class="st4" d="M356.25,330.1c4-1.52,8.58-.84,12.17-3.17q1.05-.66,2.13-1.33c5.21-3.32,9.32-6.38,12-12.11.34-.71.67-1.41,1.02-2.14.24-.53.48-1.06.73-1.61,1.38,1.29,2.71,2.63,4,4v2c4.09-3.15,8.14-6.33,12.17-9.55,1.59-1.27,3.2-2.52,4.81-3.77,7.64-6.29,11.51-13.6,12.83-23.44q.09-1.61.19-3.25h2c1.57,3.14,1.23,6.56,1,10-.33.99-.66,1.98-1,3-.03,1.71-.05,3.42-.06,5.12-.5,5.87-2.54,8.3-6.62,12.36-2.76,3-4.81,6.19-6.95,9.64-5.17,8.24-10.25,14.07-17.98,20-2.01,1.58-3.81,3.22-5.64,5q-2.75,1.88-5.62,1.44c-1.7-.85-3.41-1.71-5.11-2.57-.69-.35-1.37-.7-2.08-1.05-.63-.34-1.26-.68-1.91-1.04l-11.94-2.26-.13-5.29Z"/>
  <path id="Neck1" data-name="Neck" class="st4" d="M356.31,335.39l-11.94,2.26c-.65.35-1.28.69-1.91,1.04-.71.36-1.39.71-2.08,1.05-1.7.86-3.4,1.72-5.11,2.57q-2.88.44-5.62-1.44c-1.83-1.78-3.63-3.42-5.64-5-7.74-5.93-12.82-11.76-17.98-20-2.13-3.46-4.19-6.65-6.95-9.64-4.08-4.06-6.12-6.49-6.62-12.36-.02-1.71-.04-3.42-.06-5.13-.34-1.02-.67-2.01-1-3-.23-3.44-.57-6.86,1-10h2q.09,1.64.19,3.25c1.32,9.84,5.19,17.15,12.83,23.44,1.61,1.25,3.21,2.5,4.81,3.77,4.03,3.22,8.09,6.4,12.17,9.55v-2c1.29-1.37,2.62-2.71,4-4,.25.55.49,1.08.73,1.61.35.73.68,1.43,1.02,2.14,2.67,5.72,6.78,8.79,12,12.11q1.08.67,2.13,1.33c3.59,2.33,8.16,1.65,12.17,3.17l-.13,5.29Z"/>
  <path id="Mouth" class="st4" d="M356.64,217.96c2.9.85,5.04,2.04,7.59,3.66,3.62,2.25,7.21,4.3,11.06,6.12-4.25,4.69-9.34,5.72-15.5,6.36-8.92.32-15.59-1.24-23.5-5.36v-2c.8-.31,1.59-.63,2.41-.95q6.82-2.64,13.02-6.42,2.56-1.62,4.91-1.41Z"/>
  <path id="Ear" class="st4" d="M286.29,161.75c.09,9.07.15,17.98-1,27h-2c-3.38-7.04-4.18-14.25-3-22q3.25-5,6-5Z"/>
  <path id="Ear1" data-name="Ear" class="st4" d="M426.29,161.75c2.38.95,3.75,1.64,5.23,3.77,2.56,7.44.97,15.31-2.23,22.23-4.02-4.02-3.05-10.87-3.07-16.28,0-3.24.03-6.48.07-9.72Z"/>
  <g id="Chain">
    <path class="st4" d="M288.29,326.75h3q1.39,1.94,2.81,4.56c3.36,5.86,6.75,11.06,12.56,14.69q1.3.87,2.62,1.75v3c-3,.79-4.97,1.28-8,1-2.91-1.84-4.85-4.35-7-7-.74-.81-1.49-1.62-2.25-2.45q-5.57-6.31-6.07-9.71c.3-2.25.67-4.19,2.32-5.84Z"/>
    <path class="st4" d="M438.29,293.75q2.47.99,5,2c1.59,6.4.17,10.04-2.75,15.81-.36.76-.72,1.52-1.09,2.31q-2.73,5.59-6.16,7.88-2.69.12-5,0c0-4.63,1.14-6.58,3.31-10.62,2.95-5.64,5.18-11.16,6.69-17.38Z"/>
    <path class="st4" d="M272.29,293.75c.99.33,1.98.66,3,1q.77,1.9,1.38,4.38c1.35,4.96,3.24,9.44,5.44,14.08,1.16,2.48,2.19,4.99,3.18,7.54q-1,1-4.06,1.06c-.97-.02-1.94-.04-2.94-.06-1.32-2.44-2.63-4.87-3.94-7.31-.37-.69-.75-1.38-1.13-2.09-.36-.67-.72-1.33-1.08-2.02q-.49-.92-1-1.86c-1.97-3.99-2.16-7.32-1.85-11.72q1.5-1.94,3-3Z"/>
    <path class="st4" d="M263.29,259.75q2.62.38,5,1c1.02,3.07,1.04,4.99.94,8.19-.05,5.01.63,9.02,2.06,13.81q.63,2.16,1,4-1,1-3.31,1.44-2.69-.44-4.94-2.75c-2.65-4.53-2.59-9.57-2.75-14.69-.04-.87-.08-1.74-.12-2.64-.06-2.12.02-4.24.12-6.36l2-2Z"/>
    <path class="st4" d="M422.29,326.75h3c1.52,3.04,1.5,4.59,1,8-2,3.3-4.45,6.12-7,9-.66.79-1.32,1.58-2,2.39-1.91,2.13-3.65,3.97-6,5.61q-4,0-7-1v-3q1.94-1.91,4.56-4.06c5.6-4.85,10.11-10.29,13.44-16.94Z"/>
    <path class="st4" d="M289.6,306.37q2.69.38,4.56,2.25,1.05,1.55,2.12,3.12c1.23,1.75,2.46,3.5,3.69,5.25.6.87,1.2,1.74,1.82,2.64q1.32,2,2.49,3.11.31,2.88,0,6-2.02,1.7-4,3c-2.16-3.24-4.3-6.5-6.44-9.75-.61-.92-1.22-1.84-1.85-2.79-.58-.89-1.17-1.78-1.77-2.7-.54-.82-1.08-1.63-1.63-2.48-1.23-2.15-1.96-3.84-2.31-6.29q1-1,3.31-1.38Z"/>
    <path class="st4" d="M422.85,306.68q1.21.03,2.44.06c.91,2.47,1.17,3.59.14,6.06-.45.71-.91,1.43-1.37,2.16-.49.79-.98,1.57-1.49,2.38-.52.81-1.05,1.62-1.59,2.46-.51.82-1.02,1.63-1.55,2.47-2.01,3.18-4.05,6.34-6.13,9.47h-2q-2-3-1.91-6.23c1.07-4.44,2.84-7.43,5.41-11.15.42-.63.83-1.26,1.26-1.9q3.81-5.71,6.8-5.79Z"/>
    <path class="st4" d="M276.29,274.75c3.74.51,5.61,1.05,8,4,2.6,6.54,3.55,13.01,3,20l-2,2h-3q-.51-1.75-1.02-3.54c-.45-1.55-.9-3.1-1.35-4.64q-.33-1.15-.67-2.33c-.93-3.2-1.88-6.3-3.14-9.39-.96-2.47-.72-3.65.19-6.09Z"/>
    <path class="st4" d="M437.29,274.75c-.64,5.48-1.9,10.54-3.5,15.81-.23.76-.45,1.52-.68,2.31q-1.67,5.58-2.82,7.88-3.88-.88-5-2c.38-7.59,2.07-14.97,5-22q3-2,7-2Z"/>
    <path class="st4" d="M405.29,334.75l2,1c-1.49,3.68-3.51,5.47-6.62,7.88-.89.69-1.77,1.38-2.69,2.09-.89.67-1.77,1.35-2.69,2.04-.8.61-1.61,1.22-2.44,1.85-1.85,1.39-3.7,2.78-5.56,4.15l-3-4c1.6-4.3,4.86-6.86,8.25-9.75q.84-.76,1.7-1.54c3.7-3.17,5.99-4.45,11.05-3.71Z"/>
    <path class="st4" d="M310.39,334.28c5.41.65,7.63,3.19,11.34,6.97.64.62,1.27,1.24,1.93,1.88,1.56,1.53,3.1,3.07,4.63,4.62l-2,5c-3.97-1.35-6.47-3.07-9.5-5.94-2.35-2.21-4.45-4.03-7.23-5.68q-2.27-1.38-3.15-3.5c-.04-.62-.08-1.24-.12-1.88q1-1,4.1-1.47Z"/>
    <path class="st4" d="M451.29,267.75c-.09,2.23-.2,4.46-.31,6.69-.06,1.24-.12,2.48-.18,3.76-.53,3.65-1.26,5.65-3.51,8.55q-2.69.81-5,1c-1.44-3.91-.64-7.12.19-11.12.24-1.24.48-2.48.73-3.76q1.08-3.12,3.01-4.55,2.07-.57,5.07-.57Z"/>
    <path class="st4" d="M445.29,245.75h2c1.58,4.83,2.4,8.84,2,14-.66.66-1.32,1.32-2,2h-3c-.92-2.77-1.16-4.57-1.19-7.44-.01-.76-.03-1.52-.04-2.31.25-2.49.99-4.1,2.23-6.25Z"/>
    <path class="st4" d="M266.29,239.69l1.99.17c1.15,4.95,1.63,9.02.78,14.12-.71.6-1.43,1.2-2.17,1.82l-2.99-.26c-.68-2.84-.76-4.65-.54-7.51.05-.76.1-1.52.16-2.3.47-2.46,1.34-4,2.76-6.04Z"/>
    <path class="st4" d="M280.67,246.94q-1.19,1.06-5.1,1.72-1.83-3.11-2.02-6.5c.66-4.12,1.82-5.58,4.84-8.37,1.79,4.45,2.15,8.4,2.28,13.15Z"/>
    <path class="st4" d="M277.92,255.25c2.4,2.4,2.34,3.33,2.62,6.62.07.82.15,1.63.23,2.48q.07.94.15,1.9-3,2-7,2-.49-7.26,2-11l2-2Z"/>
    <path class="st4" d="M432.29,254.75q6,6,6.1,7.85c-.03,2.05-.07,4.1-.1,6.15-2.92-1.07-4.78-1.78-7-4-.2-3.69-.17-6.48,1-10Z"/>
    <path class="st4" d="M398.29,353.75q.88,2.69,1,6c-1.78,2.24-3.57,3.38-6,5h-2q-.81-3.25-1-7c2.71-2.94,3.96-4,8-4Z"/>
    <path class="st4" d="M315.29,353.75c2.92,1.07,4.78,1.78,7,4q-.38,3.62-1,7-6.22-3.53-8-6c.25-2.14.46-3.46,2-5Z"/>
    <path class="st4" d="M436.6,235.23c2.86,2.95,3.95,4.47,4.38,8.62q-.38,3.38-2.38,6.38-3.88-.88-5-2c.39-4.74.97-8.66,3-13Z"/>
    <path id="Chain1" data-name="Chain" class="st4" d="M370,346.2c6.05,4.09,11.33,9.35,13.29,16.55,1.1,9.5.37,18.25-5.54,26.03-5.72,6.19-13.02,9.88-21.46,10.41-7.24-.11-13.84-3.68-19.21-8.37-6.88-7.47-8.63-15.1-8.26-25.11.91-7.62,4.48-12.63,10.35-17.39,9.84-6.56,20.24-8.1,30.84-2.11Z"/>
    <path class="st1" d="M341.12,383.73l.37-24.25,22.31.34-.16,10.7c0,.54-.05,1.12-.14,1.73-.08.61-.2,1.21-.35,1.81-.15.59-.35,1.15-.58,1.68l-4.28.61-.26-.21c.2-.8.36-1.65.48-2.57.12-.91.18-1.81.19-2.69l.1-6.81-12.45-.19-.3,19.93-4.92-.07ZM350.01,383.87l.24-16.11,4.94.07-.18,11.78,5.67.08c1.94.04,3.56-.47,4.87-1.53,1.3-1.07,1.97-2.59,2-4.57l.21-13.71,4.92.07-.21,13.59c-.02,2.21-.51,4.11-1.47,5.69-.96,1.58-2.33,2.78-4.11,3.61-1.78.83-3.93,1.22-6.44,1.18l-10.45-.16Z"/>
  </g>
  <path class="st3" d="M453.29,239.75q1.87.64,4,2,1.16,2.58,2.06,5.81c.33,1.17.66,2.34,1,3.55,3.77,14.57,6.27,28.5,6.14,43.59,0,1.27,0,2.54,0,3.85,0,3.33-.03,6.65-.05,9.98-.02,3.41-.03,6.83-.04,10.24-.02,6.66-.06,13.32-.1,19.98-.84.09-1.68.17-2.55.26-3.15.32-6.3.64-9.45.97-1.36.14-2.72.28-4.08.42-1.96.2-3.93.4-5.89.6-1.18.12-2.36.24-3.57.36-3.5.39-6.98.87-10.46,1.39.31-.82.62-1.65.94-2.5.88-2.91,1.12-4.63,1.19-7.56q.2-1.96.88-3.94,1.68-1.15,3.78-2.17c5.09-2.97,6.61-6.72,8.66-12.08.66-1.63,1.33-3.26,2-4.89.28-.72.56-1.43.85-2.17q.72-1.69,1.72-2.69c-.05-3.01-.2-6.01-.36-9.02.44-3.7,1.62-4.57,4.36-6.98,2.51-6.86,3.05-13.89,3.31-21.12.04-.97.07-1.94.11-2.95q-.22-3.1-2.43-5.77c-2.57-4.06-2.47-6.85-2.25-11.53.02-.74.04-1.47.05-2.23.05-1.8.12-3.6.2-5.39Z"/>
  <path class="st3" d="M466.29,411.75c.41,4.14.57,6.25-2,9.62-8.05,6.37-16.27,9.41-26,12.38q-1.45.49-2.92.98c-7.3,2.3-14.45,2.58-22.08,2.02-1.89-1.89-1.13-4.58-1.14-7.08,0-.8,0-1.6.01-2.42,0-.8,0-1.6-.01-2.42q.01-5.96,1.14-7.08c2.34-.35,4.66-.64,7.01-.9.72-.08,1.44-.17,2.17-.25,2.31-.27,4.63-.53,6.94-.78,3-.34,6.01-.68,9.01-1.03.74-.08,1.48-.17,2.24-.25,6.21-.71,12.39-1.54,18.58-2.42q3.04-.36,7.04-.36Z"/>
  <path class="st3" d="M240.29,411.75c1.97.22,3.93.44,5.9.66,2.33.26,4.65.51,6.98.77,3.75.41,7.51.83,11.26,1.25,1.57.18,3.15.35,4.72.52,8.14.89,16.18,1.77,24.14,3.8v17c-8.75,4.38-21.84-.37-30.59-3.15-3.91-1.37-7.64-3.02-11.35-4.85-.66-.32-1.31-.64-1.99-.97-3.99-2.08-6.66-4.22-9.08-8.03q-.25-3.81,0-7Z"/>
  <path class="st3" d="M260.29,237.75c-.26,2.9-.53,5.79-.81,8.69-.07.82-.14,1.63-.21,2.47-.49,4.8-1.36,7.71-3.97,11.84-1.19,8.51-.85,21.64,4.31,28.83q.68.67,1.38,1.36c2.68,3.27,2.47,3.59,2.12,7.56-.3,5.9,1.47,10.32,3.81,15.62.33.77.66,1.55,1,2.34,2.63,5.69,5.64,9.42,11.37,12.28q.56,1.89,1,4.25c.65,3.46,1.62,6.51,3,9.75-9.98.63-19.65-1.13-29.47-2.64-3.23-.46-6.47-.79-9.73-1.1q-1.8-.26-3.8-1.26c-.08-7.73-.13-15.47-.16-23.2-.01-2.62-.04-5.24-.06-7.86q-.5-51.61,10.23-66.94c3.45-1.91,6.12-2.07,10-2Z"/>
  <path class="st3" d="M467.71,384.24c0,3.96.09,7.33.09,11.41-1.49.18-4.49.47-6.02.65-2.06.25-4.12.51-6.18.76-1.08.13-2.16.27-3.27.4-8.02,1-16.02,2.11-24,3.37-5.41.82-11.09,2.44-16.56,2.33,0-3.96.23-10.35.23-14.43,10.83-2.02,21.95-2.49,32.91-3.67,1.2-.13,2.39-.26,3.63-.4,5.95-.62,13.18-.58,19.17-.42Z"/>
  <path class="st3" d="M467.8,354.25v12.49c-1.94.28-5.38.55-7.38.84-4.91.7-9.81,1.41-14.72,2.12-3.05.44-6.1.89-9.15,1.33-1.57.23-3.14.46-4.7.69-2.3.34-4.61.67-6.91,1-.7.1-1.39.21-2.11.31-3.6.51-7.76.68-11.42.68,0-3.96-.13-7.86-.13-11.94,4.63-1.41,10.05-2.44,14.86-3.07,1.28-.17,2.56-.34,3.88-.51.66-.08,1.32-.17,2-.26,1.99-.26,3.98-.52,5.97-.78,9.44-1.23,20.27-2.9,29.8-2.9Z"/>
  <path class="st3" d="M240.29,383.75c11.53.35,22.93,1.61,34.38,3q1.12.13,2.26.27c2.15.26,4.3.52,6.45.79q1.89.23,3.81.47,3.1.46,6.1,1.46v12c-12.15-.51-24.04-1.8-36.06-3.56-1.66-.24-3.31-.47-4.97-.71-3.99-.57-7.98-1.15-11.97-1.73v-12Z"/>
  <path class="st3" d="M240.29,354.75c7.51-.37,14.45.62,21.82,1.86,5.74.96,11.41,1.53,17.23,1.89,4.73.4,9.31,1.32,13.96,2.25v12c-9.91.4-19.52-1.09-29.31-2.44-1.74-.23-3.49-.47-5.23-.7-1.67-.22-3.34-.45-5.01-.67q-1.16-.16-2.35-.32c-3.74-.51-7.4-1.13-11.1-1.88v-12Z"/>
  <path id="Earing" class="st3" d="M282.29,209.75h1v9h-6c1.25-3.45,2.61-6.2,5-9Z"/>
  <path id="Earing1" data-name="Earing" class="st3" d="M429.29,209.75c2.8,2.53,4.46,4.2,5,8h-5v-8Z"/>
</svg>